# xmcd
#
# Track frame offsets:
#	150
#	14010
#	34005
#	51592
#	77520
#	100777
#	120795
#	141882
#	156925
#
# Disc length: 2375 seconds
#
# Revision: 0
# Processed by: cddbd v1.5.1PL0 Copyright (c) Steve Scherf et al.
# Submitted via: dBpowerAMP V4.0
#
DISCID=6c094509
DTITLE=Mike Tebo - Perseverance
DYEAR=1996
DGENRE=Blues
TTITLE0=Perseverance
TTITLE1=Maybe This Time
TTITLE2=I Can't See
TTITLE3=Beautiful Way
TTITLE4=Just The Truth
TTITLE5=When I Think About You
TTITLE6=Artisan of Love
TTITLE7=That's What Your Fellin' Too
TTITLE8=Song For The Silence
EXTD=
EXTT0=
EXTT1=
EXTT2=
EXTT3=
EXTT4=
EXTT5=
EXTT6=
EXTT7=
EXTT8=
PLAYORDER=
